<?xml version="1.0" encoding="utf-8"?>
<!-- Generator: Adobe Illustrator 25.2.1, SVG Export Plug-In . SVG Version: 6.00 Build 0)  -->
<svg version="1.1" id="Layer_1" xmlns="http://www.w3.org/2000/svg" xmlns:xlink="http://www.w3.org/1999/xlink" x="0px" y="0px"
	 viewBox="0 0 512 512" style="enable-background:new 0 0 512 512;" xml:space="preserve">
<style type="text/css">
	.st0{fill:#FA3F58;}
	.st1{fill:#EC2443;}
	.st2{fill:#FFFFFF;}
	.st3{fill:#E3EEFF;}
	.st4{fill:#373B5B;}
	.st5{fill:#26293E;}
	.st6{fill:#555C7C;}
	.st7{fill:#EEEFFF;}
	.st8{fill:#DFE1F7;}
	.st9{fill:#CFCFE8;}
</style>
<path class="st0" d="M458,202.2c0,36.4-9.4,75-27.9,114.7c-14.6,31.2-34.8,63.3-60.1,95.2c-42.9,54.1-85.2,89-87,90.4
	c-7.7,6.3-17.6,9.5-27.5,9.5s-19.8-3.2-27.5-9.5c-1.8-1.5-44.1-36.3-87-90.4c-25.3-31.9-45.5-64-60.1-95.2
	C62.4,277.2,53,238.6,53,202.2C53,90.7,143.8,0,255.5,0S458,90.7,458,202.2z"/>
<path class="st1" d="M458.8,202.7c0,36.4-9.4,75-27.9,114.7c-14.6,31.2-34.8,63.3-60.1,95.2c-42.9,54.1-85.2,89-87,90.4
	c-7.7,6.3-17.6,9.5-27.5,9.5V0.5C367.9,0.5,458.8,91.2,458.8,202.7z"/>
<path class="st2" d="M391.4,199.5c0,74.4-60.5,134.9-134.9,134.9c-74.4,0-134.9-60.5-134.9-134.9c0-74.4,60.5-134.9,134.9-134.9
	C330.9,64.6,391.4,125.1,391.4,199.5z"/>
<path class="st3" d="M391,197.5c0,74.4-60.5,134.9-134.9,134.9V62.6C330.4,62.6,391,123.1,391,197.5z"/>
<g id="wheel">
	<path class="st4" d="M244.2,308.8l-12.6-7V295c0-36.2-25.8-67.2-61.2-73.7c-9.8-1.8-16.5-3.3-20-4l-20.7-22.1l28.6-43.9
		c3.7-0.7,45.9-13,98.3-13l5.5,86.7l-5.5,79.8L244.2,308.8z"/>
	<path class="st5" d="M374.6,181.1l-11.9,36.2c-3.8,0.8-10.4,2.3-20,4c-35.5,6.5-61.2,37.5-61.2,73.7v6.8l-9.4,7.3l-15.5-4.4V138.2
		c52.3,0,94.7,12.3,98.3,13L374.6,181.1z"/>
	<path class="st6" d="M148.3,196.5c0-59.7,48.5-108.2,108.2-108.2l5.5-17.2L256.5,55C178.3,55,115,118.3,115,196.5
		c0,78.2,63.3,141.5,141.5,141.5l5.5-14.7l-5.5-18.6C196.8,304.7,148.3,256.2,148.3,196.5z"/>
	<path class="st4" d="M256.5,55v33.3c59.7,0,108.2,48.5,108.2,108.2s-48.5,108.2-108.2,108.2V338c78.2,0,141.5-63.3,141.5-141.5
		C398,118.3,334.7,55,256.5,55z"/>
	<path class="st7" d="M231.5,196.5c0,13.8,11.2,25,25,25l5.5-25l-5.5-25C242.7,171.5,231.5,182.7,231.5,196.5z"/>
	<path class="st8" d="M256.5,171.5v49.9c13.8,0,25-11.2,25-25C281.5,182.7,270.3,171.5,256.5,171.5z"/>
	<path class="st8" d="M248.2,196.5c0,4.6,3.7,8.3,8.3,8.3l5.5-8.3l-5.5-8.3C251.9,188.2,248.2,191.9,248.2,196.5z"/>
	<path class="st9" d="M256.5,188.2v16.6c4.6,0,8.3-3.7,8.3-8.3C264.8,191.9,261.1,188.2,256.5,188.2z"/>
</g>
</svg>
